# xmcd
# 
# Track frame offsets:
#     150
#     17795
#     34412
#     55245
#     71894
#     89747
#     105265
#     120067
#     132798
#     147137
#     160914
#     177341
#     188942
#     206272
# 
# Disc length: 2904
# 
# Revision: 6
# Processed by: cddbd v1.5.2PL0 Copyright (c) Steve Scherf et al.
# Submitted via: fre:ac v1.1beta1pre5
# 
DISCID=bf0b560e
DTITLE=Amy Winehouse - At The BBC
DYEAR=2012
DGENRE=Neo Soul
TTITLE0=Know You Now (Leicester Summer Sundae 2004)
TTITLE1=Fuck Me Pumps (T In The Park 2004)
TTITLE2=In My Bed (T In The Park 2004)
TTITLE3=October Song (T In The Park 2004)
TTITLE4=Rehab (Pete Mitchell 2006)
TTITLE5=You Know I'm No Good (Jo Whiley Live Lounge 2007)
TTITLE6=Just Friends (Big Band Special 2009)
TTITLE7=Love Is A Losing Game (Jools Holland 2009)
TTITLE8=Tears Dry On Their Own (Jo Whiley Live Lounge 2007)
TTITLE9=Best Friends, Right? (Leicester Summer Sundae 2004)
TTITLE10=I Should Care (The Stables 2004)
TTITLE11=Lullaby Of Birdland (The Stables 2004)
TTITLE12=Valerie (Jo Whiley Live Lounge 2007)
TTITLE13=To Know Him Is To Love Him (Pete Mitchell 2006)
EXTD=Release year: 2012\nRelease country: AU\nRelease label: Lioness\nRelease catalog#: 372 197 3\nBarcode: 602537219735
EXTT0=
EXTT1=
EXTT2=
EXTT3=
EXTT4=
EXTT5=
EXTT6=
EXTT7=
EXTT8=
EXTT9=
EXTT10=
EXTT11=
EXTT12=
EXTT13=
PLAYORDER=
